<svg viewBox="0 0 1200 750" width="1200" height="750" xmlns="http://www.w3.org/2000/svg">
  <defs>
    <clipPath id="frameClip"><rect x="0" y="0" width="1200" height="750"/></clipPath>
    <clipPath id="burstClip"><circle cx="600" cy="330" r="430"/></clipPath>
    <pattern id="halftoneDark" width="9" height="9" patternUnits="userSpaceOnUse">
      <circle cx="2.2" cy="2.2" r="1.6" fill="#22243B" opacity="0.35"/>
    </pattern>
  </defs>

  <g clip-path="url(#frameClip)">
    <rect x="0" y="0" width="1200" height="750" fill="#FBF7F1"/>

    <g clip-path="url(#burstClip)">
      <polygon points="728,330 1240,330 1214.08,510.31 722.82,366.06" fill="#EFE8FA"/>
      <polygon points="722.82,366.06 1214.08,510.31 1138.4,676.01 707.68,399.2" fill="#FBF7F1"/>
      <polygon points="707.68,399.2 1138.4,676.01 1019.11,813.68 683.82,426.74" fill="#EFE8FA"/>
      <polygon points="683.82,426.74 1019.11,813.68 865.87,912.16 653.17,446.43" fill="#FBF7F1"/>
      <polygon points="653.17,446.43 865.87,912.16 691.08,963.49 618.22,456.7" fill="#EFE8FA"/>
      <polygon points="618.22,456.7 691.08,963.49 508.92,963.49 581.78,456.7" fill="#FBF7F1"/>
      <polygon points="581.78,456.7 508.92,963.49 334.13,912.16 546.83,446.43" fill="#EFE8FA"/>
      <polygon points="546.83,446.43 334.13,912.16 180.89,813.68 516.18,426.74" fill="#FBF7F1"/>
      <polygon points="516.18,426.74 180.89,813.68 61.6,676.01 492.32,399.2" fill="#EFE8FA"/>
      <polygon points="492.32,399.2 61.6,676.01 -14.08,510.31 477.18,366.06" fill="#FBF7F1"/>
      <polygon points="477.18,366.06 -14.08,510.31 -40,330 472,330" fill="#EFE8FA"/>
      <polygon points="472,330 -40,330 -14.08,149.69 477.18,293.94" fill="#FBF7F1"/>
      <polygon points="477.18,293.94 -14.08,149.69 61.6,-16.01 492.32,260.8" fill="#EFE8FA"/>
      <polygon points="492.32,260.8 61.6,-16.01 180.89,-153.68 516.18,233.26" fill="#FBF7F1"/>
      <polygon points="516.18,233.26 180.89,-153.68 334.13,-252.16 546.83,213.57" fill="#EFE8FA"/>
      <polygon points="546.83,213.57 334.13,-252.16 508.92,-303.49 581.78,203.3" fill="#FBF7F1"/>
      <polygon points="581.78,203.3 508.92,-303.49 691.08,-303.49 618.22,203.3" fill="#EFE8FA"/>
      <polygon points="618.22,203.3 691.08,-303.49 865.87,-252.16 653.17,213.57" fill="#FBF7F1"/>
      <polygon points="653.17,213.57 865.87,-252.16 1019.11,-153.68 683.82,233.26" fill="#EFE8FA"/>
      <polygon points="683.82,233.26 1019.11,-153.68 1138.4,-16.01 707.68,260.8" fill="#FBF7F1"/>
      <polygon points="707.68,260.8 1138.4,-16.01 1214.08,149.69 722.82,293.94" fill="#EFE8FA"/>
      <polygon points="722.82,293.94 1214.08,149.69 1240,330 728,330" fill="#FBF7F1"/>
      <circle cx="600" cy="330" r="430" fill="none" stroke="#22243B" stroke-width="3" opacity="0.08"/>
    </g>

    <rect x="0" y="600" width="1200" height="150" fill="#22243B"/>
    <rect x="0" y="596" width="1200" height="6" fill="#AEE3C8"/>

    <g fill="#FF7A59" stroke="#22243B" stroke-width="3" stroke-linejoin="round">
      <path d="M180 130 L190 154 L214 164 L190 174 L180 198 L170 174 L146 164 L170 154 Z"/>
    </g>
    <g fill="#FFC49B" stroke="#22243B" stroke-width="2.5" stroke-linejoin="round">
      <path d="M1030 470 L1037 486 L1053 493 L1037 500 L1030 516 L1023 500 L1007 493 L1023 486 Z"/>
    </g>

    <!-- counter -->
    <rect x="150" y="500" width="900" height="120" rx="14" fill="#6E62E5" stroke="#22243B" stroke-width="7"/>
    <rect x="150" y="500" width="900" height="24" rx="12" fill="#8479EA" stroke="#22243B" stroke-width="7"/>

    <!-- till-side reader on the counter -->
    <g transform="translate(760,470)">
      <rect x="-56" y="-56" width="112" height="112" rx="16" fill="#22243B" stroke="#22243B" stroke-width="6"/>
      <rect x="-42" y="-42" width="84" height="70" rx="8" fill="#FBF7F1"/>
      <g transform="translate(0,-6)">
        <circle r="26" fill="#AEE3C8" stroke="#22243B" stroke-width="4"/>
        <path d="M-9 0 L-2 8 L11 -9" fill="none" stroke="#22243B" stroke-width="4.5" stroke-linecap="round" stroke-linejoin="round"/>
      </g>
      <rect x="-18" y="30" width="36" height="8" rx="4" fill="#22243B" opacity="0.5"/>
      <rect x="-10" y="56" width="20" height="14" rx="3" fill="#22243B"/>
    </g>

    <!-- cashier bust behind counter -->
    <g transform="translate(320,510)">
      <path d="M-120 90 C -120 -14 -78 -68 -8 -68 C 60 -68 104 -16 110 90 Z" fill="#FF7A59" stroke="#22243B" stroke-width="7" stroke-linejoin="round"/>
      <circle cx="-6" cy="-152" r="68" fill="#FFC49B" stroke="#22243B" stroke-width="7"/>
      <path d="M-70 -170 C -72 -210 -42 -226 -6 -226 C 30 -226 60 -204 58 -170 C 46 -188 20 -200 -6 -200 C -34 -200 -58 -188 -70 -170 Z" fill="#22243B"/>
      <circle cx="-28" cy="-148" r="6" fill="#22243B"/>
      <circle cx="18" cy="-148" r="6" fill="#22243B"/>
      <path d="M-32 -122 C -22 -112 8 -112 18 -122" fill="none" stroke="#22243B" stroke-width="5.5" stroke-linecap="round"/>
      <ellipse cx="-46" cy="-134" rx="13" ry="8" fill="url(#halftoneDark)"/>
    </g>

    <!-- customer hand holding phone with QR code, reaching toward the reader -->
    <g transform="translate(590,430) rotate(-8)">
      <rect x="-64" y="-118" width="128" height="200" rx="20" fill="#22243B" stroke="#22243B" stroke-width="6"/>
      <rect x="-52" y="-100" width="104" height="150" rx="6" fill="#FBF7F1"/>
      <text x="0" y="-72" text-anchor="middle" font-family="Arial, Helvetica, sans-serif" font-weight="700" font-size="13" fill="#22243B" letter-spacing="0.5">18+ VERIFIED</text>
      <g transform="translate(0,-6)">
        <rect x="-38" y="-38" width="76" height="76" rx="6" fill="#FBF7F1" stroke="#22243B" stroke-width="4"/>
        <g fill="#22243B">
          <rect x="-30" y="-30" width="18" height="18"/>
          <rect x="12" y="-30" width="18" height="18"/>
          <rect x="-30" y="12" width="18" height="18"/>
          <rect x="-4" y="-30" width="8" height="8"/>
          <rect x="-4" y="-4" width="8" height="8"/>
          <rect x="12" y="-4" width="8" height="8"/>
          <rect x="-4" y="12" width="8" height="8"/>
          <rect x="12" y="12" width="8" height="8"/>
        </g>
      </g>
      <circle cx="0" cy="58" r="10" fill="none" stroke="#22243B" stroke-width="3"/>
      <!-- hand holding the phone -->
      <path d="M-70 60 C -90 70 -96 100 -84 130 L-60 190 a20 20 0 0 0 38 -6 L-40 130 Z" fill="#FFC49B" stroke="#22243B" stroke-width="6" stroke-linejoin="round"/>
    </g>

    <!-- signal / wireless arcs between phone and reader -->
    <g fill="none" stroke="#4E3FD1" stroke-width="4" stroke-linecap="round" opacity="0.8">
      <path d="M672 400 C 690 392 706 392 722 400"/>
      <path d="M666 416 C 688 404 712 404 734 416"/>
    </g>

    <g transform="translate(56,690)">
      <path d="M14 0s16-8 16-20V-40l-16-6-16 6v20C-2-8 14 0 14 0z" fill="#4E3FD1"/>
      <path d="M4.6-15.4L11-8.4L21-19.4" fill="none" stroke="#FBF7F1" stroke-width="4.2" stroke-linecap="round" stroke-linejoin="round"/>
    </g>
  </g>
</svg>
