<svg viewBox="0 0 1200 750" width="1200" height="750" xmlns="http://www.w3.org/2000/svg">
  <defs>
    <clipPath id="frameClip"><rect x="0" y="0" width="1200" height="750"/></clipPath>
    <clipPath id="burstClip"><circle cx="600" cy="330" r="430"/></clipPath>
    <pattern id="halftoneDark" width="9" height="9" patternUnits="userSpaceOnUse">
      <circle cx="2.2" cy="2.2" r="1.6" fill="#22243B" opacity="0.35"/>
    </pattern>
  </defs>

  <g clip-path="url(#frameClip)">
    <rect x="0" y="0" width="1200" height="750" fill="#FBF7F1"/>

    <g clip-path="url(#burstClip)">
      <polygon points="728,330 1240,330 1214.08,510.31 722.82,366.06" fill="#EFE8FA"/>
      <polygon points="722.82,366.06 1214.08,510.31 1138.4,676.01 707.68,399.2" fill="#FBF7F1"/>
      <polygon points="707.68,399.2 1138.4,676.01 1019.11,813.68 683.82,426.74" fill="#EFE8FA"/>
      <polygon points="683.82,426.74 1019.11,813.68 865.87,912.16 653.17,446.43" fill="#FBF7F1"/>
      <polygon points="653.17,446.43 865.87,912.16 691.08,963.49 618.22,456.7" fill="#EFE8FA"/>
      <polygon points="618.22,456.7 691.08,963.49 508.92,963.49 581.78,456.7" fill="#FBF7F1"/>
      <polygon points="581.78,456.7 508.92,963.49 334.13,912.16 546.83,446.43" fill="#EFE8FA"/>
      <polygon points="546.83,446.43 334.13,912.16 180.89,813.68 516.18,426.74" fill="#FBF7F1"/>
      <polygon points="516.18,426.74 180.89,813.68 61.6,676.01 492.32,399.2" fill="#EFE8FA"/>
      <polygon points="492.32,399.2 61.6,676.01 -14.08,510.31 477.18,366.06" fill="#FBF7F1"/>
      <polygon points="477.18,366.06 -14.08,510.31 -40,330 472,330" fill="#EFE8FA"/>
      <polygon points="472,330 -40,330 -14.08,149.69 477.18,293.94" fill="#FBF7F1"/>
      <polygon points="477.18,293.94 -14.08,149.69 61.6,-16.01 492.32,260.8" fill="#EFE8FA"/>
      <polygon points="492.32,260.8 61.6,-16.01 180.89,-153.68 516.18,233.26" fill="#FBF7F1"/>
      <polygon points="516.18,233.26 180.89,-153.68 334.13,-252.16 546.83,213.57" fill="#EFE8FA"/>
      <polygon points="546.83,213.57 334.13,-252.16 508.92,-303.49 581.78,203.3" fill="#FBF7F1"/>
      <polygon points="581.78,203.3 508.92,-303.49 691.08,-303.49 618.22,203.3" fill="#EFE8FA"/>
      <polygon points="618.22,203.3 691.08,-303.49 865.87,-252.16 653.17,213.57" fill="#FBF7F1"/>
      <polygon points="653.17,213.57 865.87,-252.16 1019.11,-153.68 683.82,233.26" fill="#EFE8FA"/>
      <polygon points="683.82,233.26 1019.11,-153.68 1138.4,-16.01 707.68,260.8" fill="#FBF7F1"/>
      <polygon points="707.68,260.8 1138.4,-16.01 1214.08,149.69 722.82,293.94" fill="#EFE8FA"/>
      <polygon points="722.82,293.94 1214.08,149.69 1240,330 728,330" fill="#FBF7F1"/>
      <circle cx="600" cy="330" r="430" fill="none" stroke="#22243B" stroke-width="3" opacity="0.08"/>
    </g>

    <rect x="0" y="600" width="1200" height="150" fill="#22243B"/>
    <rect x="0" y="596" width="1200" height="6" fill="#FF7A59"/>

    <g fill="#FF7A59" stroke="#22243B" stroke-width="3" stroke-linejoin="round">
      <path d="M170 120 L180 144 L204 154 L180 164 L170 188 L160 164 L136 154 L160 144 Z"/>
    </g>
    <g fill="#AEE3C8" stroke="#22243B" stroke-width="3" stroke-linejoin="round">
      <path d="M1040 460 L1047 476 L1063 483 L1047 490 L1040 506 L1033 490 L1017 483 L1033 476 Z"/>
    </g>
    <g fill="#FFC49B" stroke="#22243B" stroke-width="2.5" stroke-linejoin="round">
      <path d="M980 150 L985 162 L997 167 L985 172 L980 184 L975 172 L963 167 L975 162 Z"/>
    </g>

    <!-- shop counter -->
    <rect x="180" y="470" width="840" height="150" rx="14" fill="#6E62E5" stroke="#22243B" stroke-width="7"/>
    <rect x="180" y="470" width="840" height="26" rx="13" fill="#8479EA" stroke="#22243B" stroke-width="7"/>
    <rect x="220" y="524" width="180" height="16" rx="8" fill="#22243B" opacity="0.18"/>
    <rect x="440" y="524" width="130" height="16" rx="8" fill="#22243B" opacity="0.18"/>

    <!-- shelf behind with bottles marked 18+ -->
    <g transform="translate(860,330)">
      <rect x="-140" y="-160" width="300" height="220" rx="12" fill="#22243B" opacity="0.06"/>
      <rect x="-118" y="-40" width="256" height="8" fill="#22243B" opacity="0.3"/>
      <rect x="-118" y="-116" width="256" height="8" fill="#22243B" opacity="0.3"/>
      <g stroke="#22243B" stroke-width="4" stroke-linejoin="round">
        <path d="M-90 -108 h20 v14 l8 10 v42 a6 6 0 0 1 -6 6 h-24 a6 6 0 0 1 -6 -6 v-42 l8 -10 Z" fill="#AEE3C8"/>
        <path d="M-40 -108 h20 v14 l8 10 v42 a6 6 0 0 1 -6 6 h-24 a6 6 0 0 1 -6 -6 v-42 l8 -10 Z" fill="#FFC49B"/>
        <path d="M10 -108 h20 v14 l8 10 v42 a6 6 0 0 1 -6 6 h-24 a6 6 0 0 1 -6 -6 v-42 l8 -10 Z" fill="#FF7A59"/>
      </g>
      <g transform="translate(66,-16) rotate(-8)">
        <circle r="34" fill="#22243B"/>
        <text x="0" y="8" text-anchor="middle" font-family="Arial, Helvetica, sans-serif" font-weight="700" font-size="20" fill="#FBF7F1">18+</text>
      </g>
    </g>

    <!-- cashier bust behind counter -->
    <g transform="translate(360,480)">
      <path d="M-127 140 C -127 28 -82 -28 -8 -28 C 69 -28 117 26 123 140 Z" fill="#6E62E5" stroke="#22243B" stroke-width="7" stroke-linejoin="round"/>
      <circle cx="-8" cy="-116" r="72" fill="#FFC49B" stroke="#22243B" stroke-width="7"/>
      <path d="M-76 -136 C -78 -180 -46 -198 -8 -198 C 34 -198 66 -174 64 -136 C 50 -156 22 -168 -8 -168 C -40 -168 -64 -156 -76 -136 Z" fill="#22243B"/>
      <circle cx="-32" cy="-112" r="6.5" fill="#22243B"/>
      <circle cx="18" cy="-112" r="6.5" fill="#22243B"/>
      <path d="M-38 -84 C -26 -72 8 -72 20 -84" fill="none" stroke="#22243B" stroke-width="6" stroke-linecap="round"/>
      <ellipse cx="-50" cy="-96" rx="14" ry="9" fill="url(#halftoneDark)"/>
    </g>

    <!-- shield / due diligence badge -->
    <g transform="translate(240,240) rotate(-10)">
      <path d="M0 -54s46 -22 46 -56v-58l-46 -18 -46 18v58C-46 -76 0 -54 0 -54z" fill="#4E3FD1" stroke="#22243B" stroke-width="6"/>
      <path d="M-15 -108l19 19l29 -32" fill="none" stroke="#FBF7F1" stroke-width="9" stroke-linecap="round" stroke-linejoin="round"/>
    </g>

    <g transform="translate(56,690)">
      <path d="M14 0s16-8 16-20V-40l-16-6-16 6v20C-2-8 14 0 14 0z" fill="#4E3FD1"/>
      <path d="M4.6-15.4L11-8.4L21-19.4" fill="none" stroke="#FBF7F1" stroke-width="4.2" stroke-linecap="round" stroke-linejoin="round"/>
    </g>
  </g>
</svg>
